<?xml version="1.0" encoding="UTF-8" standalone="no"?>
<!DOCTYPE svg PUBLIC "-//W3C//DTD SVG 1.1//EN" "http://www.w3.org/Graphics/SVG/1.1/DTD/svg11.dtd">
<svg version="1.1" xmlns="http://www.w3.org/2000/svg" xmlns:xlink="http://www.w3.org/1999/xlink" preserveAspectRatio="xMidYMid meet" viewBox="0 0 640 640" width="640" height="640"><defs><path d="M334.13 584.13C322.38 595.88 303.38 595.88 291.75 584.13C267.45 559.84 73.05 365.54 48.75 341.25C37 329.5 37 310.5 48.75 298.88C73.05 274.58 267.45 80.18 291.75 55.88C303.5 44.13 322.5 44.13 334.13 55.88C336.9 58.65 359.1 80.85 361.88 83.63C373.75 95.5 373.5 114.88 361.38 126.5C351.33 136.07 301.13 183.9 210.75 270C426.3 270 546.05 270 570 270C586.63 270 600 283.38 600 300C600 304 600 336 600 340C600 356.63 586.63 370 570 370C546.05 370 426.3 370 210.75 370C301.13 456.1 351.33 503.93 361.38 513.5C373.63 525.13 373.88 544.5 361.88 556.38C356.33 561.92 336.9 581.35 334.13 584.13Z" id="a45ZXbVPBR"></path></defs><g><g><g><use xlink:href="#a45ZXbVPBR" opacity="1" fill="#ffffff" fill-opacity="1"></use><g><use xlink:href="#a45ZXbVPBR" opacity="1" fill-opacity="0" stroke="#000000" stroke-width="1" stroke-opacity="0"></use></g></g></g></g></svg>