<?xml version="1.0" encoding="UTF-8" standalone="no"?>
<!DOCTYPE svg PUBLIC "-//W3C//DTD SVG 1.1//EN" "http://www.w3.org/Graphics/SVG/1.1/DTD/svg11.dtd">
<svg version="1.1" xmlns="http://www.w3.org/2000/svg" xmlns:xlink="http://www.w3.org/1999/xlink" preserveAspectRatio="xMidYMid meet" viewBox="0 0 640 640" width="640" height="640"><defs><path d="M305.84 55.88C317.59 44.13 336.59 44.13 348.22 55.88C372.52 80.16 566.92 274.46 591.22 298.75C602.97 310.5 602.97 329.5 591.22 341.13C566.92 365.43 372.52 559.83 348.22 584.13C336.47 595.88 317.47 595.88 305.84 584.13C303.07 581.35 280.87 559.15 278.09 556.38C266.22 544.5 266.47 525.13 278.59 513.5C288.64 503.93 338.84 456.1 429.22 370C213.67 370 93.92 370 69.97 370C53.34 370 39.97 356.63 39.97 340C39.97 336 39.97 304 39.97 300C39.97 283.38 53.34 270 69.97 270C93.92 270 213.67 270 429.22 270C338.84 183.9 288.64 136.07 278.59 126.5C266.34 114.88 266.09 95.5 278.09 83.63C283.64 78.08 303.07 58.65 305.84 55.88Z" id="lOEUxiSX8"></path></defs><g><g><g><use xlink:href="#lOEUxiSX8" opacity="1" fill="#ffffff" fill-opacity="1"></use><g><use xlink:href="#lOEUxiSX8" opacity="1" fill-opacity="0" stroke="#000000" stroke-width="1" stroke-opacity="0"></use></g></g></g></g></svg>